<svg xmlns="http://www.w3.org/2000/svg" viewBox="0 0 367.74 329.6"><defs><style>.cls-1{fill:#003049;}.cls-2{fill:#fff;}</style></defs><title>Asset 3</title><g id="Layer_2" data-name="Layer 2"><g id="Layer_1-2" data-name="Layer 1"><path class="cls-1" d="M0,268.15H17.55L22.4,273v27.17L17.55,305H7.76V329.6H0Zm14.64,28.78V276.24L13,274.62H7.76v23.93H13Z"/><path class="cls-1" d="M26.52,268.15h18L49.32,273v25.55L45,302.84l4.85,26.76H42.37L37.6,303.4H34.28v26.2H26.52Zm15,27.33V276.24l-1.62-1.62H34.28V297.1h5.66Z"/><path class="cls-1" d="M77.46,324.75l-4.85,4.85H59.11l-4.85-4.85V273l4.85-4.85h13.5L77.46,273Zm-13.82-50L62,276.4v45L63.64,323h4.44l1.62-1.62v-45l-1.62-1.62Z"/><path class="cls-1" d="M88.3,321.35v-53.2h7.76v56.6l-4.85,4.85H80.37V323h6.31Z"/><path class="cls-1" d="M101.31,268.15h19.17v6.63h-11.4v20.38H119v6.63h-9.94V323h11.56v6.63H101.31Z"/><path class="cls-1" d="M124.52,273l4.85-4.85h12l4.85,4.85v13.83h-7.76V276.24l-1.62-1.62H133.9l-1.62,1.62v45.11L133.9,323h2.91l1.62-1.62V310.84h7.76v13.91l-4.85,4.85h-12l-4.85-4.85Z"/><path class="cls-1" d="M163.49,274.62v55h-7.76v-55h-7.36v-6.47h22.48v6.47Z"/><path class="cls-1" d="M192.92,313.75l-1.53,15.85h-7.76L191,268.15h11.16l7.52,61.45h-8.09L200,313.75Zm3.56-37.6-3,31h6Z"/><path class="cls-1" d="M236.1,273v51.75l-4.85,4.85H213.06V268.15h18.19Zm-7.76,48.35v-45l-1.62-1.62h-5.9V323h5.9Z"/><path class="cls-1" d="M264.24,273v51.75l-4.85,4.85H241.2V268.15h18.19Zm-7.76,48.35v-45l-1.62-1.62H249V323h5.9Z"/><path class="cls-1" d="M269.33,268.15h17.95l4.86,4.85v25.55l-4.29,4.29,4.85,26.76h-7.52l-4.77-26.2H277.1v26.2h-7.77Zm15,27.33V276.24l-1.61-1.62H277.1V297.1h5.66Z"/><path class="cls-1" d="M297.63,268.15H316.8v6.63H305.4v20.38h9.94v6.63H305.4V323H317v6.63H297.63Z"/><path class="cls-1" d="M333.86,276.24l-1.62-1.62h-2.83l-1.62,1.62v17.3l1.62,1.62H337l4.85,4.85v24.74L337,329.6H324.72l-4.85-4.85V311.89h7.76v9.63l1.62,1.61h3.23l1.62-1.61V303.4l-1.62-1.61h-7.6L320,296.93V273l4.85-4.85h11.89l4.85,4.85v12.94h-7.76Z"/><path class="cls-1" d="M359.73,276.24l-1.61-1.62h-2.83l-1.62,1.62v17.3l1.62,1.62h7.6l4.85,4.85v24.74l-4.85,4.85H350.6l-4.86-4.85V311.89h7.77v9.63l1.61,1.61h3.24l1.62-1.61V303.4l-1.62-1.61h-7.6l-4.85-4.86V273l4.85-4.85h11.88l4.85,4.85v12.94h-7.76Z"/><path class="cls-1" d="M248.55,115.4a9.48,9.48,0,0,1,9.4,9.48l48.76-.22L263.55,81.28,220.38,37.9,177.59,81.66l-42.8,43.76,86-.38,18.4-.08A9.48,9.48,0,0,1,248.55,115.4Z"/><path class="cls-2" d="M133.38,126l87-89,87.75,88.19-50.77.22v-.59a8.81,8.81,0,1,0-17.62.08v.59Zm87-87.28L136.2,124.82l102.37-.45a10,10,0,0,1,19.95-.08l46.77-.21Z"/><path class="cls-1" d="M202.56,150c.35,6.71-6.75,12.17-12.68,12.2a10.43,10.43,0,0,1-4.37-1V186.4H159.77a9.33,9.33,0,0,0,.75-3.64c0-6.32-6.38-11.46-14.23-11.46s-14.22,5.14-14.22,11.46a9.51,9.51,0,0,0,.74,3.64H107.88V123.88h10.21V98.79h47.42v25.09h20v14.86a15.33,15.33,0,0,1,6.13.33C195.66,140.13,202.24,143.71,202.56,150Z"/><path class="cls-2" d="M186.11,187H158.89l.34-.82a9.06,9.06,0,0,0,.7-3.42c0-6-6.12-10.86-13.64-10.86s-13.63,4.87-13.63,10.86a8.87,8.87,0,0,0,.7,3.42l.34.82H107.28V123.29H117.5V98.2h48.6v25.09h20v14.78a15.88,15.88,0,0,1,5.68.42c3.78,1,11,4.68,11.36,11.44h0a11.19,11.19,0,0,1-3.3,8.22,14.43,14.43,0,0,1-10,4.6h0a10.82,10.82,0,0,1-3.73-.68Zm-25.49-1.19h24.3V160.28l.84.38a9.75,9.75,0,0,0,4.11.91,13.31,13.31,0,0,0,9.13-4.23,10,10,0,0,0,3-7.35c-.31-6.08-7-9.43-10.48-10.35a14.54,14.54,0,0,0-5.89-.31l-.68.09V124.47h-20V99.38H118.68v25.09H108.47v61.34H132a9.73,9.73,0,0,1-.49-3.05c0-6.64,6.64-12,14.81-12s14.82,5.41,14.82,12A10,10,0,0,1,160.62,185.81Z"/><rect class="cls-1" x="185.51" y="186.34" width="75.91" height="63.39"/><path class="cls-2" d="M262,250.33H184.92V185.75H262Zm-75.91-1.19h74.72V186.93H186.1Z"/><path class="cls-1" d="M186.53,203.52c-.36,0-.72,0-1.08,0V186.62H160.13a9.59,9.59,0,0,0,.58-3.25c0-6.39-6.33-11.56-14.14-11.56s-14.15,5.17-14.15,11.56a9.59,9.59,0,0,0,.58,3.25H108.24v63.11h77.21V226.6c.36,0,.72.05,1.08.05,7.81,0,14.15-5.18,14.15-11.57S194.34,203.52,186.53,203.52Z"/><path class="cls-2" d="M186,250.33H107.65V186h24.54a10.09,10.09,0,0,1-.36-2.66c0-6.7,6.61-12.15,14.74-12.15s14.73,5.45,14.73,12.15a10.09,10.09,0,0,1-.36,2.66H186v16.91h.49c8.13,0,14.74,5.45,14.74,12.15s-6.61,12.16-14.74,12.16H186Zm-77.21-1.19h76V226l.63,0c.34,0,.69,0,1,0,7.48,0,13.56-4.92,13.56-11s-6.08-11-13.56-11c-.35,0-.7,0-1,0l-.63,0v-17H159.3l.28-.79a9,9,0,0,0,.54-3c0-6.05-6.08-11-13.55-11s-13.56,4.92-13.56,11a9,9,0,0,0,.54,3l.29.79h-25Z"/><path class="cls-1" d="M261.56,124.86q-19.69-.08-39.72-.34-18.3-.26-36.33-.64v15.44a12.43,12.43,0,0,1,6.13-.25c4.76,1.05,10.17,5.42,10.1,11.58-.06,5.18-4,9.25-8.08,10.78a12.8,12.8,0,0,1-8.15.13v25l24.71-.06a9.4,9.4,0,0,0-.3,2.32c0,6.26,6.27,11.35,14,11.35s14-5.09,14-11.35a9.4,9.4,0,0,0-.3-2.32h23.81Q261.48,155.67,261.56,124.86Z"/><path class="cls-2" d="M223.92,200.74c-8,0-14.59-5.36-14.59-11.94a10,10,0,0,1,.15-1.73l-24.56.06V160.76l.76.24a12.32,12.32,0,0,0,7.77-.13c3.67-1.35,7.64-5.13,7.7-10.23.06-5.75-4.92-10-9.64-11a11.75,11.75,0,0,0-5.84.25l-.75.22V123.27l.61,0c12.05.26,24.27.48,36.32.64,13.17.17,26.54.29,39.72.34h.59l-.15,62.8H238.34a9.13,9.13,0,0,1,.16,1.73C238.5,195.38,232,200.74,223.92,200.74ZM211,185.88l-.19.74a9,9,0,0,0-.27,2.18c0,5.93,6,10.76,13.4,10.76s13.39-4.83,13.39-10.76a9,9,0,0,0-.27-2.18l-.19-.73h24l.14-60.44c-13,0-26.15-.17-39.14-.34-11.85-.16-23.86-.37-35.72-.63v14.08a12.64,12.64,0,0,1,5.67-.07c5.17,1.14,10.63,5.79,10.56,12.17-.06,5.65-4.43,9.83-8.47,11.32a13.31,13.31,0,0,1-7.76.36V186Z"/><ellipse class="cls-1" cx="248.49" cy="124.82" rx="8.75" ry="8.91"/><path class="cls-1" d="M131.29,117.19a10.86,10.86,0,0,1,11.18-10.85,11,11,0,0,1,10.54,11,10.85,10.85,0,0,1-2.47,6.78l87,.61-13.85-13.14a10.86,10.86,0,1,1-14.91-15.2L193.27,80.59,150,36.46,106.11,80l-43.89,43.5,71.45.51A10.74,10.74,0,0,1,131.29,117.19Z"/><path class="cls-2" d="M239,125.3l-89.7-.63.79-1a10.34,10.34,0,0,0,2.34-6.41,10.46,10.46,0,0,0-10-10.37,10.26,10.26,0,0,0-8.32,16.66l.77,1L60.79,124,150,35.62l59.64,60.84-.6.39a10.27,10.27,0,1,0,14.1,14.38l.39-.57Zm-87.29-1.8,84.3.6-12.27-11.64a11.45,11.45,0,1,1-15.9-16.19L150,37.3,63.64,122.87l68.87.49A11.44,11.44,0,0,1,134.17,109,11.45,11.45,0,0,1,151.7,123.5Z"/><path class="cls-1" d="M199.22,64.44a10.23,10.23,0,0,1,18-5.17L229.52,47,183.3.84,138.22,48l13.12,12.56A10.22,10.22,0,1,1,165.75,74.3l18.61,17.83,18.47-18.47A10.22,10.22,0,0,1,199.22,64.44Z"/><path class="cls-2" d="M184.37,93,164.8,74.22l.62-.41a9.63,9.63,0,1,0-13.58-13l-.38.63L137.38,48,183.29,0l47.06,47L217.18,60.15l-.41-.5a9.63,9.63,0,0,0-17,4.86h0a9.64,9.64,0,0,0,3.4,8.7l.49.41Zm-17.7-18.59L184.35,91.3,202,73.69a10.78,10.78,0,0,1-3.33-9.33,10.81,10.81,0,0,1,18.61-6L228.68,47,183.31,1.69,139.06,47.93l12.17,11.66a10.81,10.81,0,1,1,15.44,14.78Z"/></g></g></svg>